REM MD5 9fd5789829533e777756a3750d73af09
FILE "Destruction Derby Raw (USA) (Demo).bin" BINARY
  TRACK 01 MODE2/2352
    INDEX 01 00:00:00
  TRACK 02 AUDIO
    INDEX 00 03:18:22
    INDEX 01 03:20:22
  TRACK 03 AUDIO
    INDEX 00 07:17:19
    INDEX 01 07:19:19
REM LEADOUT 07:29:20
